<svg xmlns="http://www.w3.org/2000/svg" viewBox="0 0 223.79 105.67"><defs><style>.a{fill:#d79f37;}.b{fill:#dbdbdb;opacity:0.47;}.c{fill:#f8d821;}.d{fill:#c68d30;}.e{fill:#151416;}</style></defs><title>Element 14</title><polygon class="a" points="135.92 0.41 129 1.25 120.42 8.44 117.93 19.37 117.51 89.26 120.56 98.94 130.66 104.62 138.69 104.89 206.8 104.86 215.9 101.57 222.96 88.98 223.79 78.05 222.82 16.33 221.02 7.33 214.38 1.8 206.91 0 135.92 0.41"/><polygon class="b" points="176.46 2.63 207.19 2.63 214.94 5.4 220.06 11.62 221.02 16.61 220.36 58.92 216.04 17.71 214.24 11.9 209.26 8.16 176.46 2.63"/><polygon class="c" points="134.26 16.61 134.53 84 136.61 86.21 202.06 86.35 206.08 81.09 204.83 15.22 136.89 15.36 134.26 16.61"/><polygon class="d" points="206.8 104.86 132.13 105.67 120.56 98.94 117.05 89.43 117.93 19.37 122.16 89.32 127.14 96.39 133.99 99.64 206.8 104.86"/><polygon class="e" points="149.82 43.31 162.41 44.35 163.25 39.61 168.78 37.14 180.17 38.38 181.11 48.16 173.22 49.39 165.11 50.37 163.89 60.81 176.26 60.89 177.09 56.39 189.26 55.04 191.77 40.83 190.84 31.04 178.58 26.44 164.05 26.78 155.11 32.26 150.02 35.7 149.82 43.31"/><polygon class="e" points="162.66 68.39 164.16 74.85 173.42 75.57 176.05 74.92 176.02 67.07 163.66 66.51 162.66 68.39"/><polygon class="a" points="18.86 0.41 11.95 1.25 3.37 8.44 0.88 19.37 0.46 89.26 3.5 98.94 13.61 104.62 21.63 104.89 89.75 104.86 98.85 101.57 105.91 88.98 106.74 78.05 105.77 16.33 103.97 7.33 97.33 1.8 89.86 0 18.86 0.41"/><polygon class="b" points="59.41 2.63 90.13 2.63 97.88 5.4 103 11.62 103.97 16.61 103.31 58.92 98.99 17.71 97.19 11.9 92.21 8.16 59.41 2.63"/><polygon class="c" points="17.2 16.61 17.48 84 19.56 86.21 85.01 86.35 89.03 81.09 87.78 15.22 19.83 15.36 17.2 16.61"/><rect class="e" x="33.62" y="29.11" width="6.5" height="26.01"/><rect class="e" x="66.91" y="29.11" width="6.5" height="26.01"/><polygon class="d" points="89.75 104.86 15.08 105.67 3.5 98.94 0 89.43 0.88 19.37 5.1 89.32 10.09 96.39 16.93 99.64 89.75 104.86"/></svg>